<?xml version="1.0" encoding="utf-8"?>
<!-- Generator: Adobe Illustrator 26.0.2, SVG Export Plug-In . SVG Version: 6.00 Build 0)  -->
<svg version="1.1" id="Layer_1" xmlns="http://www.w3.org/2000/svg" xmlns:xlink="http://www.w3.org/1999/xlink" x="0px" y="0px"
	 viewBox="0 0 100 100" style="enable-background:new 0 0 100 100;" xml:space="preserve">
<style type="text/css">
	.st0{clip-path:url(#SVGID_00000079480514054518607360000010184255114158697884_);}
	.st1{fill:#E5E5E5;stroke:#E5E5E5;stroke-miterlimit:10;}
</style>
<g>
	<g>
		<defs>
			<rect id="SVGID_1_" width="100" height="100"/>
		</defs>
		<clipPath id="SVGID_00000029011136021784491530000006689392252061906336_">
			<use xlink:href="#SVGID_1_"  style="overflow:visible;"/>
		</clipPath>
		<g style="clip-path:url(#SVGID_00000029011136021784491530000006689392252061906336_);">
			<path class="st1" d="M82.1,91.7c-6.7,0-13.9-3.6-13.9-13.9c0-5.8,3.1-9.7,6.1-13.4c1.2-1.5,2.4-3,3.4-4.6
				c-4.3-3.9-9.1-6.9-12.3-6.9v-5.6c4.5,0,10,3.1,14.9,7.4c1.1-2.8,1.7-6,1.7-10.2h5.6c0,6-1.2,10.6-3,14.3c4,4.3,7.2,9,8.4,12.6
				c1.9,5.7,1.3,11.7-1.5,15.7C89.5,90,86.1,91.7,82.1,91.7z M81.8,63.7c-1,1.5-2.1,2.8-3.1,4c-2.7,3.4-4.9,6.2-4.9,10
				c0,6.9,4.5,8.3,8.3,8.3c2.2,0,3.9-0.8,5-2.3c1.8-2.5,2.1-6.7,0.7-10.7C86.9,70.4,84.6,67,81.8,63.7L81.8,63.7z"/>
			<path class="st1" d="M71,91.7H9.9c-1.5,0-2.8,1.2-2.8,2.8v5.6h66.7v-5.6C73.8,92.9,72.6,91.7,71,91.7z"/>
			<path class="st1" d="M84.9,27.8c-1.5,0-2.8-1.2-2.8-2.8v-9L88,4.3c0.7-1.4,2.4-1.9,3.7-1.2c1.4,0.7,1.9,2.4,1.2,3.7l-5.3,10.5V25
				C87.7,26.5,86.5,27.8,84.9,27.8z"/>
			<path class="st1" d="M91.9,44.4h-2.2c0.5-0.8,0.8-1.8,0.8-2.8v-11c0-2-1.1-3.8-2.8-4.8V25c0-1.5-1.2-2.8-2.8-2.8
				c-1.5,0-2.8,1.2-2.8,2.8v0.8c-1.7,1-2.8,2.7-2.8,4.8v11.1c0,1,0.3,2,0.8,2.8H78c-0.8,0-1.4,0.6-1.4,1.4s0.6,1.4,1.4,1.4h13.9
				c0.8,0,1.4-0.6,1.4-1.4S92.6,44.4,91.9,44.4z"/>
			<path class="st1" d="M68.2,38.9c0,1.5,1.2,2.8,2.8,2.8h13.9c1.5,0,2.8-1.2,2.8-2.8c0-1.5-1.2-2.8-2.8-2.8H71
				C69.5,36.1,68.2,37.4,68.2,38.9z"/>
			<path class="st1" d="M62.7,0H18.3C12.1,0,7.1,5,7.1,11.1v27.8c0,6.1,5,11.1,11.1,11.1h44.4c6.1,0,11.1-5,11.1-11.1V11.1
				C73.8,5,68.8,0,62.7,0z M68.3,38.9c0,3.1-2.5,5.6-5.6,5.6H18.3c-3.1,0-5.6-2.5-5.6-5.6V11.1c0-3.1,2.5-5.6,5.6-5.6h44.4
				c3.1,0,5.6,2.5,5.6,5.6V38.9z"/>
			<path class="st1" d="M34.9,13.9h25v8.3h-25V13.9z"/>
		</g>
	</g>
</g>
<path class="st1" d="M62.7,44.5H18.3c-2,0-3.7-1-4.7-2.5l3.1,46.9C17.1,95,21.6,100,26.8,100h28.1c5.2,0,9.7-5,10.1-11.1l3.2-48.8
	C67.6,42.6,65.4,44.5,62.7,44.5z"/>
</svg>
